<svg width="500" height="500" viewBox="0 0 500 500" fill="none" xmlns="http://www.w3.org/2000/svg">
<g clip-path="url(#clip0_2_17)">
<path d="M179.295 260.409C154.601 259.579 102.193 256.859 85.4301 256.282C81.8332 256.167 77.4293 254.622 77.4293 249.988C77.4293 245.354 81.8332 243.833 85.4301 243.694C102.193 243.118 154.601 240.397 179.295 239.567C214.504 238.392 219.507 219.486 238.506 213.907C237.515 180.292 234.725 129.87 227.07 92.2441C214.527 30.5712 198.571 0.0229492 119.532 0.0229492C40.5149 0.0229492 24.5364 30.5712 11.9933 92.2441C-0.549739 153.917 0.00363807 250.011 0.00363807 250.011C0.00363807 250.011 -0.549739 346.083 11.9933 407.779C24.5364 469.452 40.4919 500 119.532 500C198.548 500 214.527 469.452 227.07 407.779C234.725 370.129 237.515 319.731 238.506 286.116C219.507 280.491 214.504 261.585 179.295 260.409Z" fill="black"/>
<path d="M488.007 92.2211C475.464 30.5483 459.508 0 380.469 0C301.452 0 285.473 30.5483 272.93 92.2211C265.275 129.893 262.486 180.361 261.494 213.976C280.263 219.671 285.404 238.369 320.428 239.544C345.122 240.374 397.531 243.095 414.293 243.671C417.89 243.787 422.294 245.331 422.294 249.965C422.294 254.6 417.89 256.121 414.293 256.26C397.531 256.836 345.122 259.556 320.428 260.386C285.404 261.562 280.263 280.283 261.494 285.955C262.486 319.569 265.275 370.037 272.93 407.71C285.473 469.383 301.429 499.931 380.469 499.931C459.485 499.931 475.464 469.383 488.007 407.71C500.55 346.037 499.997 249.942 499.997 249.942C499.997 249.942 500.55 153.894 488.007 92.2211Z" fill="black"/>
</g>
<defs>
<clipPath id="clip0_2_17">
<rect width="500" height="500" fill="white"/>
</clipPath>
</defs>
</svg>
