<svg width="16" height="20" viewBox="0 0 16 20" fill="none" xmlns="http://www.w3.org/2000/svg">
<path d="M5.91667 19.9969C5.18333 19.9469 4.16667 19.7469 3.03333 19.4136C2 19.1136 0.616667 18.5802 0.6 17.4802C0.6 16.6969 1.05 16.0136 2 15.4136C2.41667 15.1469 3.05 14.8302 3.33333 14.7136C3.73333 14.5302 4.55 14.1636 5.16667 13.9469V4.14691L1.5 3.74691V14.2969C1.5 14.7136 1.16667 14.9969 0.75 14.9969C0.333333 14.9969 0 14.7136 0 14.2969V2.91358C0 2.69691 0.0833333 2.49691 0.25 2.34691C0.383333 2.23025 0.566667 2.14691 0.75 2.14691C0.783333 2.14691 0.8 2.14691 0.833333 2.14691L6 2.71358C6.38333 2.74691 6.66667 3.08025 6.66667 3.46358V13.3302C7.38333 13.0469 8.06667 12.7469 8.66667 12.4802C10.55 11.6136 11.8333 10.7302 12.5667 9.78025C13.45 8.63025 13.5833 7.21358 13.5333 6.23025C13.4833 5.16358 13.15 4.21358 12.4833 3.29691C12.1333 2.83025 11.5 2.19691 10.7333 1.86358C10.1667 1.61358 9.7 1.49691 9.35 1.46358C8.85 1.39691 8.6 1.03025 8.63333 0.680247C8.66667 0.31358 8.95 0.0469137 9.36667 0.0135804C10.0833 -0.0530863 10.6167 0.130247 11.35 0.46358C12.75 1.09691 13.6333 2.26358 13.7333 2.39691C14.5667 3.53025 15.0167 4.79691 15.0667 6.16358C15.1167 7.23025 14.9833 8.18025 14.6667 9.06358C14.4667 9.63025 14.15 10.1969 13.7667 10.6969C12.4333 12.4136 10.1 13.4802 9.33333 13.8302C8.61667 14.1636 7 14.8302 6.68333 14.9636V19.2469C6.68333 19.4636 6.58333 19.6802 6.41667 19.8136C6.28333 19.9302 6.1 19.9969 5.95 19.9969C5.93333 19.9969 5.93333 19.9969 5.91667 19.9969ZM5.16667 15.5636C4.7 15.7302 4 15.9969 3.73333 16.1136C3.48333 16.2302 2.71667 16.5802 2.38333 16.8802C2.3 16.9469 2.03333 17.1969 2.1 17.3969C2.16667 17.5802 2.46667 17.7136 3.68333 18.0302C4.11667 18.1469 4.61667 18.2636 5.15 18.3469V15.5636H5.16667Z" fill="#0B0F15"/>
</svg>
