<svg width="315" height="38" viewBox="0 0 315 38" fill="none" xmlns="http://www.w3.org/2000/svg">
<path d="M296 0H22C11.5066 0 3 8.50659 3 19C3 29.4934 11.5066 38 22 38H296C306.493 38 315 29.4934 315 19C315 8.50659 306.493 0 296 0Z" fill="#E2F1FD"/>
<path d="M0.8218 36.274L8.5 29L21 38H1.5096C0.605597 38 0.1656 36.8958 0.8218 36.274Z" fill="#E2F1FD"/>
<path d="M284.257 26.2039V25.3709C284.257 25.1669 284.257 24.9799 284.274 24.7589C283.39 25.9999 282.489 26.4419 280.84 26.4419C279.65 26.4419 278.749 26.1699 278.001 25.5749C276.862 24.6909 276.233 23.1439 276.233 21.3079C276.233 18.1969 278.018 16.2249 280.823 16.2249C281.877 16.2249 282.744 16.4799 283.407 17.0069C283.713 17.2449 283.9 17.4489 284.274 17.9419C284.274 17.7379 284.274 17.7379 284.257 17.3979C284.24 17.2789 284.24 16.9559 284.24 16.6669V14.9669C284.24 13.9469 284.206 13.3859 284.121 12.6719H286.518C286.433 13.4879 286.399 14.0829 286.399 14.9499V23.9089C286.399 24.9119 286.433 25.4559 286.518 26.2039H284.257ZM278.443 21.3249C278.443 23.3479 279.531 24.6229 281.231 24.6229C282.132 24.6229 282.999 24.1979 283.509 23.5009C283.934 22.9399 284.172 22.1069 284.172 21.2229C284.172 20.3899 283.849 19.5059 283.356 18.9619C282.829 18.3839 281.962 18.0099 281.146 18.0099C279.497 18.0099 278.443 19.3019 278.443 21.3249Z" fill="#2B546A"/>
<path d="M275.38 16.446L274.785 18.588C274.071 18.384 273.714 18.316 273.272 18.316C272.422 18.316 271.776 18.588 271.3 19.149C270.875 19.642 270.705 20.033 270.603 20.849V23.994C270.603 24.912 270.637 25.405 270.722 26.204H268.291C268.376 25.371 268.41 24.878 268.41 23.994V18.656C268.41 17.619 268.393 17.143 268.291 16.446H270.603V18.044C271.215 16.837 272.269 16.259 273.799 16.259C274.207 16.259 274.615 16.31 275.38 16.446Z" fill="#2B546A"/>
<path d="M261.543 26.527C258.432 26.527 256.46 24.521 256.46 21.342C256.46 18.18 258.432 16.157 261.526 16.157C264.603 16.157 266.558 18.163 266.558 21.308C266.558 24.453 264.569 26.527 261.543 26.527ZM261.526 17.925C259.741 17.925 258.653 19.217 258.653 21.342C258.653 23.433 259.741 24.725 261.509 24.725C263.277 24.725 264.365 23.45 264.365 21.376C264.365 19.183 263.328 17.925 261.526 17.925Z" fill="#2B546A"/>
<path d="M252.642 26.204H250.67C250.602 25.796 250.449 25.252 250.245 24.589L248.936 20.577C248.902 20.509 248.8 20.135 248.613 19.438C248.528 19.744 248.324 20.441 248.273 20.611L246.964 24.589C246.777 25.167 246.59 25.847 246.522 26.204H244.55C244.448 25.711 244.38 25.456 244.108 24.589L242.238 18.554C242 17.772 241.762 17.075 241.524 16.446H244.04C244.074 16.939 244.227 17.806 244.414 18.469L245.349 21.784C245.417 22.005 245.519 22.481 245.655 23.144C245.689 22.974 245.978 21.971 246.046 21.767L247.27 18.061C247.44 17.568 247.644 16.786 247.695 16.446H249.514C249.565 16.769 249.786 17.568 249.939 18.061L251.197 21.92C251.248 22.073 251.333 22.396 251.435 22.753C251.486 22.974 251.503 22.991 251.537 23.144C251.571 23.008 251.571 23.008 251.622 22.77C251.673 22.532 251.792 21.988 251.826 21.869L252.778 18.469C252.982 17.738 253.118 16.99 253.152 16.446H255.651C255.43 17.007 255.396 17.143 254.954 18.554L253.067 24.589C252.812 25.405 252.727 25.728 252.642 26.204Z" fill="#2B546A"/>
<path d="M234.997 25.524L231.818 18.554C231.07 16.871 231.053 16.82 230.849 16.446H233.433C233.518 16.939 233.773 17.738 234.079 18.435L236.153 23.263L238.04 18.452C238.448 17.415 238.584 16.99 238.686 16.446H241.219C241.117 16.667 240.811 17.364 240.301 18.554L236.425 27.649C235.881 28.941 234.878 29.536 233.297 29.536C232.787 29.536 232.294 29.485 231.512 29.332L231.903 27.394C232.379 27.598 232.702 27.683 233.093 27.683C233.688 27.683 234.181 27.36 234.419 26.833L234.997 25.524Z" fill="#2B546A"/>
<path d="M230.072 21.8859H222.677C222.762 22.8209 222.915 23.2969 223.306 23.7899C223.799 24.4019 224.564 24.7419 225.431 24.7419C226.264 24.7419 226.978 24.4359 227.471 23.8919C227.675 23.6539 227.794 23.4669 227.964 23.0079L229.97 23.6539C229.579 24.4699 229.358 24.7929 228.933 25.2179C228.049 26.0849 226.859 26.5269 225.431 26.5269C222.422 26.5269 220.518 24.5209 220.518 21.3419C220.518 18.1969 222.405 16.1399 225.312 16.1399C227.301 16.1399 228.865 17.1259 229.545 18.8259C229.868 19.6419 229.987 20.2539 230.038 21.4099C230.038 21.4439 230.038 21.4949 230.072 21.8859ZM222.728 20.2029H227.862C227.743 19.4549 227.539 18.9959 227.114 18.5709C226.655 18.1119 226.077 17.8909 225.278 17.8909C223.952 17.8909 222.983 18.7749 222.728 20.2029Z" fill="#2B546A"/>
<path d="M209.87 12.6719H212.267C212.182 13.3179 212.148 13.9129 212.148 14.8989V20.4919L214.698 17.9589C215.48 17.2109 215.769 16.8709 216.041 16.4459H219.22C218.251 17.3129 218.251 17.3129 217.52 18.0099L215.106 20.3049L217.979 24.2319C219.135 25.8129 219.135 25.8129 219.526 26.2039H216.5C216.296 25.6599 216.092 25.3199 215.378 24.2829L213.542 21.5969L212.148 22.9229V24.0279C212.148 25.1329 212.165 25.5409 212.267 26.2039H209.87C209.955 25.5069 209.989 24.9289 209.989 23.9939V14.8989C209.989 13.8789 209.955 13.3179 209.87 12.6719Z" fill="#2B546A"/>
<path d="M199.861 26.204V25.099C199.181 25.745 198.756 25.983 198.059 26.17C197.566 26.306 197.022 26.374 196.478 26.374C194.404 26.374 193.146 25.303 193.146 23.518C193.146 22.328 193.894 21.257 195.067 20.764C196.172 20.305 197.43 20.135 199.861 20.084V19.217C199.861 18.231 199.198 17.721 197.906 17.721C197.226 17.721 196.529 17.908 196.138 18.214C195.815 18.452 195.662 18.69 195.458 19.302L193.282 18.911C193.673 17.925 193.979 17.483 194.625 17.024C195.458 16.412 196.41 16.157 197.872 16.157C199.504 16.157 200.49 16.446 201.221 17.16C201.799 17.704 202.02 18.35 202.02 19.506V24.079C202.02 24.98 202.054 25.439 202.156 26.204H199.861ZM199.861 22.413V21.563C196.614 21.631 195.339 22.192 195.339 23.518C195.339 24.317 195.934 24.81 196.886 24.81C197.787 24.81 198.671 24.47 199.249 23.909C199.657 23.501 199.861 23.008 199.861 22.413Z" fill="#2B546A"/>
<path d="M175.765 27.768L177.465 26.595C178.128 27.513 178.876 27.887 180.1 27.887C181.409 27.887 182.412 27.428 182.888 26.612C183.177 26.102 183.296 25.507 183.33 24.351C182.48 25.422 181.477 25.898 179.998 25.898C177.295 25.898 175.561 24.045 175.561 21.138C175.561 18.197 177.346 16.293 180.1 16.293C181.613 16.293 182.616 16.752 183.347 17.789C183.313 17.449 183.313 17.415 183.313 17.228V16.446H185.591C185.506 17.177 185.472 17.653 185.472 18.571V24.266C185.472 26.306 185.03 27.615 184.044 28.448C183.194 29.145 181.783 29.536 180.032 29.536C178.043 29.536 176.921 29.077 175.765 27.768ZM177.788 21.189C177.788 22.192 178.06 23.025 178.57 23.535C178.995 23.994 179.726 24.3 180.372 24.3C181.307 24.3 182.259 23.756 182.735 22.957C183.058 22.43 183.211 21.801 183.211 21.019C183.211 19.931 182.871 19.081 182.191 18.503C181.715 18.112 181.154 17.891 180.542 17.891C178.842 17.891 177.788 19.166 177.788 21.189Z" fill="#2B546A"/>
<path d="M166.979 26.2039H164.531C164.633 25.4729 164.667 24.9459 164.667 23.9939V18.6559C164.667 17.7209 164.633 17.1429 164.531 16.4459H166.843V17.3469C166.843 17.6019 166.843 17.6529 166.809 18.0779C167.846 16.7519 168.747 16.2759 170.277 16.2759C171.586 16.2759 172.555 16.7009 173.167 17.5339C173.575 18.0949 173.745 18.7749 173.745 19.9139V23.9939C173.745 24.9289 173.779 25.5749 173.881 26.2039H171.416C171.501 25.4389 171.535 24.8609 171.535 23.9939V20.2199C171.535 19.5059 171.45 19.0469 171.246 18.7239C170.974 18.2819 170.464 18.0269 169.818 18.0269C168.594 18.0269 167.591 18.8769 166.843 20.5599V23.9939C166.843 24.8269 166.877 25.4729 166.979 26.2039Z" fill="#2B546A"/>
<path d="M159.915 12.6719H162.414V14.8309H159.915V12.6719ZM159.915 16.4459H162.397C162.312 17.0749 162.278 17.6359 162.278 18.6729V23.9769C162.278 24.9119 162.312 25.4899 162.397 26.2039H159.915C160.017 25.4389 160.051 24.8439 160.051 23.9939V18.6559C160.051 17.7209 160.017 17.1429 159.915 16.4459Z" fill="#2B546A"/>
<path d="M158.671 16.446L158.076 18.588C157.362 18.384 157.005 18.316 156.563 18.316C155.713 18.316 155.067 18.588 154.591 19.149C154.166 19.642 153.996 20.033 153.894 20.849V23.994C153.894 24.912 153.928 25.405 154.013 26.204H151.582C151.667 25.371 151.701 24.878 151.701 23.994V18.656C151.701 17.619 151.684 17.143 151.582 16.446H153.894V18.044C154.506 16.837 155.56 16.259 157.09 16.259C157.498 16.259 157.906 16.31 158.671 16.446Z" fill="#2B546A"/>
<path d="M149.87 21.8859H142.475C142.56 22.8209 142.713 23.2969 143.104 23.7899C143.597 24.4019 144.362 24.7419 145.229 24.7419C146.062 24.7419 146.776 24.4359 147.269 23.8919C147.473 23.6539 147.592 23.4669 147.762 23.0079L149.768 23.6539C149.377 24.4699 149.156 24.7929 148.731 25.2179C147.847 26.0849 146.657 26.5269 145.229 26.5269C142.22 26.5269 140.316 24.5209 140.316 21.3419C140.316 18.1969 142.203 16.1399 145.11 16.1399C147.099 16.1399 148.663 17.1259 149.343 18.8259C149.666 19.6419 149.785 20.2539 149.836 21.4099C149.836 21.4439 149.836 21.4949 149.87 21.8859ZM142.526 20.2029H147.66C147.541 19.4549 147.337 18.9959 146.912 18.5709C146.453 18.1119 145.875 17.8909 145.076 17.8909C143.75 17.8909 142.781 18.7749 142.526 20.2029Z" fill="#2B546A"/>
<path d="M134.492 13.8279H136.923C136.855 14.4229 136.804 15.1539 136.804 15.9189V16.4459H137.518C138.317 16.4459 138.691 16.4289 139.235 16.3439V18.3499C138.674 18.2649 138.351 18.2479 137.569 18.2479H136.804V23.5179C136.804 24.3509 137.11 24.6569 137.926 24.6569C138.368 24.6569 138.64 24.5719 139.167 24.2829L139.473 26.0849C138.742 26.3569 138.232 26.4419 137.348 26.4419C135.393 26.4419 134.611 25.7449 134.611 23.9599V18.2479H133.965C133.336 18.2479 133.013 18.2649 132.452 18.3499V16.3439C132.945 16.4289 133.268 16.4459 133.982 16.4459H134.611V15.9189C134.611 15.1879 134.56 14.4399 134.492 13.8279Z" fill="#2B546A"/>
<path d="M124.362 26.2039H121.914C122.016 25.4729 122.05 24.9459 122.05 23.9939V18.6559C122.05 17.7209 122.016 17.1429 121.914 16.4459H124.226V17.3469C124.226 17.6019 124.226 17.6529 124.192 18.0779C125.229 16.7519 126.13 16.2759 127.66 16.2759C128.969 16.2759 129.938 16.7009 130.55 17.5339C130.958 18.0949 131.128 18.7749 131.128 19.9139V23.9939C131.128 24.9289 131.162 25.5749 131.264 26.2039H128.799C128.884 25.4389 128.918 24.8609 128.918 23.9939V20.2199C128.918 19.5059 128.833 19.0469 128.629 18.7239C128.357 18.2819 127.847 18.0269 127.201 18.0269C125.977 18.0269 124.974 18.8769 124.226 20.5599V23.9939C124.226 24.8269 124.26 25.4729 124.362 26.2039Z" fill="#2B546A"/>
<path d="M120.236 21.8859H112.841C112.926 22.8209 113.079 23.2969 113.47 23.7899C113.963 24.4019 114.728 24.7419 115.595 24.7419C116.428 24.7419 117.142 24.4359 117.635 23.8919C117.839 23.6539 117.958 23.4669 118.128 23.0079L120.134 23.6539C119.743 24.4699 119.522 24.7929 119.097 25.2179C118.213 26.0849 117.023 26.5269 115.595 26.5269C112.586 26.5269 110.682 24.5209 110.682 21.3419C110.682 18.1969 112.569 16.1399 115.476 16.1399C117.465 16.1399 119.029 17.1259 119.709 18.8259C120.032 19.6419 120.151 20.2539 120.202 21.4099C120.202 21.4439 120.202 21.4949 120.236 21.8859ZM112.892 20.2029H118.026C117.907 19.4549 117.703 18.9959 117.278 18.5709C116.819 18.1119 116.241 17.8909 115.442 17.8909C114.116 17.8909 113.147 18.7749 112.892 20.2029Z" fill="#2B546A"/>
<path d="M98.001 25.524L94.822 18.554C94.074 16.871 94.057 16.82 93.853 16.446H96.437C96.522 16.939 96.777 17.738 97.083 18.435L99.157 23.263L101.044 18.452C101.452 17.415 101.588 16.99 101.69 16.446H104.223C104.121 16.667 103.815 17.364 103.305 18.554L99.429 27.649C98.885 28.941 97.882 29.536 96.301 29.536C95.791 29.536 95.298 29.485 94.516 29.332L94.907 27.394C95.383 27.598 95.706 27.683 96.097 27.683C96.692 27.683 97.185 27.36 97.423 26.833L98.001 25.524Z" fill="#2B546A"/>
<path d="M85.0122 26.2039H82.7512C82.8362 25.4559 82.8702 24.9119 82.8702 23.9089V14.9499C82.8702 14.0829 82.8362 13.4879 82.7512 12.6719H85.1482C85.0632 13.3859 85.0292 13.9469 85.0292 14.9669V16.6669C85.0292 16.9389 85.0122 17.3639 84.9952 17.9419C85.8792 16.7519 86.9332 16.2249 88.4972 16.2249C91.3532 16.2249 93.0362 18.0779 93.0362 21.2399C93.0362 22.9059 92.5602 24.2659 91.6422 25.2179C90.8432 26.0339 89.7552 26.4419 88.3782 26.4419C86.8142 26.4419 85.8452 25.9489 84.9952 24.7589C85.0122 24.9799 85.0122 25.1669 85.0122 25.3709V26.2039ZM90.8262 21.2399C90.8262 19.2849 89.8062 18.0099 88.2422 18.0099C87.2902 18.0099 86.4912 18.3329 85.9302 18.9449C85.4202 19.5059 85.0972 20.4239 85.0972 21.3079C85.0972 22.3789 85.5392 23.4499 86.2192 23.9939C86.7122 24.3849 87.3752 24.6229 88.0042 24.6229C89.7212 24.6229 90.8262 23.2969 90.8262 21.2399Z" fill="#2B546A"/>
<path d="M70.8579 13.8279H73.2889C73.2209 14.4229 73.1699 15.1539 73.1699 15.9189V16.4459H73.8839C74.6829 16.4459 75.0569 16.4289 75.6009 16.3439V18.3499C75.0399 18.2649 74.7169 18.2479 73.9349 18.2479H73.1699V23.5179C73.1699 24.3509 73.4759 24.6569 74.2919 24.6569C74.7339 24.6569 75.0059 24.5719 75.5329 24.2829L75.8389 26.0849C75.1079 26.3569 74.5979 26.4419 73.7139 26.4419C71.7589 26.4419 70.9769 25.7449 70.9769 23.9599V18.2479H70.3309C69.7019 18.2479 69.3789 18.2649 68.8179 18.3499V16.3439C69.3109 16.4289 69.6339 16.4459 70.3479 16.4459H70.9769V15.9189C70.9769 15.1879 70.9259 14.4399 70.8579 13.8279Z" fill="#2B546A"/>
<path d="M68.4747 16.446L67.8797 18.588C67.1657 18.384 66.8087 18.316 66.3667 18.316C65.5167 18.316 64.8707 18.588 64.3947 19.149C63.9697 19.642 63.7997 20.033 63.6977 20.849V23.994C63.6977 24.912 63.7317 25.405 63.8167 26.204H61.3857C61.4707 25.371 61.5047 24.878 61.5047 23.994V18.656C61.5047 17.619 61.4877 17.143 61.3857 16.446H63.6977V18.044C64.3097 16.837 65.3637 16.259 66.8937 16.259C67.3017 16.259 67.7097 16.31 68.4747 16.446Z" fill="#2B546A"/>
<path d="M57.0373 26.204V25.099C56.3573 25.745 55.9323 25.983 55.2353 26.17C54.7423 26.306 54.1983 26.374 53.6543 26.374C51.5803 26.374 50.3223 25.303 50.3223 23.518C50.3223 22.328 51.0703 21.257 52.2433 20.764C53.3483 20.305 54.6063 20.135 57.0373 20.084V19.217C57.0373 18.231 56.3743 17.721 55.0823 17.721C54.4023 17.721 53.7053 17.908 53.3143 18.214C52.9913 18.452 52.8383 18.69 52.6343 19.302L50.4583 18.911C50.8493 17.925 51.1553 17.483 51.8013 17.024C52.6343 16.412 53.5863 16.157 55.0483 16.157C56.6803 16.157 57.6663 16.446 58.3973 17.16C58.9753 17.704 59.1963 18.35 59.1963 19.506V24.079C59.1963 24.98 59.2303 25.439 59.3323 26.204H57.0373ZM57.0373 22.413V21.563C53.7903 21.631 52.5153 22.192 52.5153 23.518C52.5153 24.317 53.1103 24.81 54.0623 24.81C54.9633 24.81 55.8473 24.47 56.4253 23.909C56.8333 23.501 57.0373 23.008 57.0373 22.413Z" fill="#2B546A"/>
<path d="M44.3452 13.8279H46.7762C46.7082 14.4229 46.6572 15.1539 46.6572 15.9189V16.4459H47.3712C48.1702 16.4459 48.5442 16.4289 49.0882 16.3439V18.3499C48.5272 18.2649 48.2042 18.2479 47.4222 18.2479H46.6572V23.5179C46.6572 24.3509 46.9632 24.6569 47.7792 24.6569C48.2212 24.6569 48.4932 24.5719 49.0202 24.2829L49.3262 26.0849C48.5952 26.3569 48.0852 26.4419 47.2012 26.4419C45.2462 26.4419 44.4642 25.7449 44.4642 23.9599V18.2479H43.8182C43.1892 18.2479 42.8662 18.2649 42.3052 18.3499V16.3439C42.7982 16.4289 43.1212 16.4459 43.8352 16.4459H44.4642V15.9189C44.4642 15.1879 44.4132 14.4399 44.3452 13.8279Z" fill="#2B546A"/>
<path d="M30.7649 22.243L33.2129 21.988C33.2809 22.753 33.3829 23.093 33.6889 23.484C34.1819 24.13 35.0659 24.487 36.1709 24.487C37.8709 24.487 38.8909 23.722 38.8909 22.447C38.8909 21.75 38.5679 21.172 38.0409 20.883C37.5309 20.611 37.4289 20.594 35.0829 20.05C33.8079 19.761 33.1279 19.489 32.5159 19.013C31.6489 18.333 31.2069 17.398 31.2069 16.259C31.2069 13.896 33.1109 12.366 36.0349 12.366C37.9729 12.366 39.4349 12.961 40.2679 14.083C40.6929 14.644 40.8969 15.154 41.1009 16.055L38.6699 16.344C38.5679 15.766 38.4489 15.477 38.1599 15.137C37.7179 14.61 36.9699 14.321 36.0349 14.321C34.5559 14.321 33.5529 15.069 33.5529 16.174C33.5529 16.888 33.9269 17.381 34.7089 17.721C35.0829 17.874 35.2189 17.908 37.1059 18.333C38.4489 18.622 39.2649 18.945 39.8769 19.37C40.8459 20.084 41.2879 21.019 41.2879 22.294C41.2879 23.501 40.9139 24.487 40.2169 25.184C39.3159 26.051 37.9729 26.476 36.1539 26.476C34.7599 26.476 33.3999 26.136 32.5839 25.592C31.9039 25.133 31.4109 24.487 31.0879 23.654C30.9349 23.263 30.8669 22.94 30.7649 22.243Z" fill="#2B546A"/>
</svg>
