<svg xmlns="http://www.w3.org/2000/svg" width="109" height="64" viewBox="0 0 109 64" fill="none">
  <mask id="mask0_14_1510" style="mask-type:luminance" maskUnits="userSpaceOnUse" x="-6" y="-20" width="115" height="85">
    <path d="M108.844 -20H-6V64.3388H108.844V-20Z" fill="white"/>
  </mask>
  <g mask="url(#mask0_14_1510)">
    <path d="M57.8904 75.3999C63.4905 81.9041 72.022 80.9413 77.0885 75.9402C81.577 71.5098 80.4013 64.6626 78.1298 61.5799C73.3962 55.1558 65.4416 57.143 62.661 60.4111C60.5626 62.8774 59.5413 69.0426 63.7533 71.4651C67.7374 73.7566 71.9253 71.7618 72.0894 70.284C71.9759 72.4868 64.7408 76.6455 59.3449 70.1445" fill="#7779B8"/>
    <path d="M17.9333 52.3315C14.6873 55.9847 10.4323 61.5259 8.24058 69.8374C8.2521 69.8276 8.26314 69.8184 8.27486 69.8089C17.2011 62.5991 16.2012 66.4563 21.4809 63.9486C26.5911 61.5214 24.5771 58.2203 26.1721 55.4053C26.0727 55.3949 19.6265 53.5725 17.9333 52.3315Z" fill="#7779B8"/>
    <path opacity="0.24" d="M18.6052 57.0217C20.3959 58.6675 21.1703 61.0994 21.1517 64.0985C21.2599 64.0501 21.3671 64.0028 21.481 63.9487C24.1089 62.7005 24.8517 61.2211 25.1712 59.6957C22.5616 59.0093 20.3945 58.0984 18.6052 57.0217Z" fill="#605985"/>
    <path d="M15.8975 50.561C11.6558 52.7752 6.42093 57.1151 3.69604 61.5657C6.66101 60.6191 9.50068 60.262 12.1533 60.2824C12.1533 60.2824 15.6546 54.8626 18.1237 52.4678C17.4806 51.982 16.4874 51.1654 15.8975 50.561Z" fill="#636CA8"/>
    <mask id="mask1_14_1510" style="mask-type:alpha" maskUnits="userSpaceOnUse" x="25" y="46" width="36" height="42">
      <path d="M57.7393 49.5727C53.1977 45.9227 33.9411 46.2502 28.8298 49.5664C21.0286 54.6275 28.8418 79.3881 28.8418 79.3881C28.8642 79.5065 30.8046 85.0518 30.8046 85.0518C31.939 88.2735 34.215 88.6282 35.3513 85.4071C35.3513 85.4071 36.9006 79.7599 36.9684 79.7237C39.4608 80.4125 48.2982 79.9414 49.8626 79.5842C50.0239 79.6603 51.2438 85.4835 51.2438 85.4835C52.3782 88.7052 54.8398 88.2769 55.9761 85.0557L57.7441 79.3944C57.7441 79.3944 64.6713 55.1431 57.7393 49.5727Z" fill="#7779B8"/>
    </mask>
    <g mask="url(#mask1_14_1510)">
      <path d="M57.7393 49.9516C53.1977 46.3016 33.9411 46.6291 28.8298 49.9453C21.0286 55.0064 28.8418 79.767 28.8418 79.767C28.8642 79.8854 30.8045 85.4307 30.8045 85.4307C31.939 88.6524 34.215 89.0071 35.3513 85.786C35.3513 85.786 36.9006 80.1388 36.9684 80.1026C39.4607 80.7914 48.2982 80.3203 49.8626 79.9631C50.0239 80.0392 51.2437 85.8624 51.2437 85.8624C52.3782 89.084 54.8398 88.6558 55.9761 85.4346L57.7441 79.7733C57.7441 79.7733 64.6713 55.522 57.7393 49.9516Z" fill="#7779B8"/>
    </g>
    <mask id="mask2_14_1510" style="mask-type:alpha" maskUnits="userSpaceOnUse" x="34" y="52" width="19" height="18">
      <path d="M52.5186 61.1252C52.4974 65.9731 43.331 69.8663 43.331 69.8663C43.331 69.8663 34.1987 65.8997 34.2198 61.0518C34.241 56.2038 36.1103 52.2812 43.4075 52.3105C51.1003 52.3413 52.5397 56.2772 52.5186 61.1252Z" fill="#FCFDFF"/>
    </mask>
    <g mask="url(#mask2_14_1510)">
      <path d="M52.5186 61.1252C52.4974 65.9731 43.331 69.8663 43.331 69.8663C43.331 69.8663 34.1987 65.8997 34.2198 61.0518C34.241 56.2038 36.1103 52.2812 43.4075 52.3105C51.1003 52.3413 52.5397 56.2772 52.5186 61.1252Z" fill="#FCFDFF"/>
      <path d="M43.5051 60.0466C41.557 61.5869 36.8143 64.6707 35.8293 65.1449L36.1195 65.7482C37.1258 65.2635 41.9472 62.1317 43.9202 60.5715L43.5051 60.0466Z" fill="#605985"/>
      <path d="M51.5065 59.6599C49.5424 61.2129 40.7623 67.5256 39.3596 68.0263L39.5844 68.6564C41.1404 68.1015 50.1947 61.5505 51.9216 60.1848L51.5065 59.6599Z" fill="#605985"/>
      <path d="M43.3728 60.0466L42.9578 60.5715C44.9314 62.132 49.7529 65.2638 50.7588 65.7482L51.049 65.1449C50.064 64.671 45.3216 61.5872 43.3728 60.0466Z" fill="#605985"/>
      <path d="M35.4983 59.7681L35.2907 60.0306L35.0833 60.2929C36.7824 61.6368 45.7243 68.0965 47.2933 68.6564L47.5182 68.0263C46.1034 67.5214 37.4308 61.2962 35.4983 59.7681Z" fill="#605985"/>
    </g>
    <path opacity="0.3" d="M59.4356 58.6743C59.4298 60.0031 52.3098 65.0178 43.203 64.9813C34.0963 64.9448 26.9005 60.4639 26.9063 59.1351C26.9121 57.8063 33.8386 58.8232 42.9453 58.8598C52.052 58.8963 59.4414 57.3455 59.4356 58.6743Z" fill="#605985"/>
    <path d="M20.7923 11.2853C23.5556 8.54328 32.7886 6.51764 39.6533 6.06822C47.4718 5.5564 56.3498 7.00411 61.9366 9.3615C73.5171 4.06157 83.4249 17.2712 84.1144 19.8202C84.6624 21.846 79.0813 23.6757 69.2381 21.5092C69.2381 21.5092 72.2774 30.9876 72.7824 36.3028C73.4504 43.3328 73.3016 58.7937 43.1449 60.868C12.9881 62.9423 10.3919 48.8986 9.77618 40.1499C9.49474 36.1504 10.6796 26.5975 11.251 22.865C6.68852 22.0044 2.33372 9.9306 4.36309 4.15955C5.40294 1.20226 18.0975 6.03273 20.7923 11.2853Z" fill="#7779B8"/>
    <path opacity="0.25" d="M84.1424 20.1562C83.541 21.0207 75.9561 22.2204 68.538 19.3354C66.9205 18.7064 67.4621 19.7484 69.3263 21.7882C69.2703 21.6096 69.2381 21.5092 69.2381 21.5092C78.5323 23.5547 84.0198 22.0373 84.1424 20.1562Z" fill="#605985"/>
    <path opacity="0.25" d="M12.9459 21.5025C5.95159 19.1082 3.95878 7.10438 3.94483 6.32114C3.94455 6.30339 3.93594 6.29076 3.92012 6.28271C3.3047 12.4453 7.16803 22.0358 11.2124 22.8548C13.2272 22.3569 14.0341 21.875 12.9459 21.5025Z" fill="#605985"/>
    <path d="M40.8092 28.3092C26.4286 29.2951 18.2645 35.1279 18.937 44.9374C19.6367 55.1442 29.1037 57.2025 42.8065 56.2631C56.509 55.3238 65.6071 52.0025 64.9068 41.786C64.1958 31.4154 55.1898 27.3234 40.8092 28.3092Z" fill="#E1BF7F"/>
    <path opacity="0.2" d="M19.8049 38.9852L19.6804 39.4542C32.3183 34.1318 54.5162 33.2846 63.7298 36.6196C60.3688 30.6896 51.7753 27.7742 40.679 28.5348C29.9095 29.2731 22.4952 33.0901 19.8049 38.9852Z" fill="#605985"/>
    <path d="M19.9363 38.4984L19.9465 38.5072C31.4947 34.2482 52.9153 32.7813 63.1635 35.6593C59.8088 29.8216 51.9159 27.4226 40.8196 28.1833C30.0501 28.9216 22.6325 32.6889 19.9363 38.4984Z" fill="#D1D1D1"/>
    <path d="M40.4771 22.0762L34.698 28.7059L41.3277 34.485L47.1068 27.8552L40.4771 22.0762Z" fill="white"/>
    <path opacity="0.23" d="M41.3279 34.4847L47.1071 27.8551L40.4788 22.0774L41.3279 34.4847Z" fill="#9E9FC1"/>
    <path opacity="0.9" d="M30.0541 39.5196C29.871 40.7151 31.0698 40.5805 32.1624 40.4578C33.255 40.3351 34.6335 40.9142 34.1668 39.0575C33.9824 38.3242 33.074 37.8026 32.0552 37.8469C30.5818 37.9482 30.1423 38.9438 30.0541 39.5196Z" fill="white"/>
    <path opacity="0.9" d="M53.1405 37.7978C53.5639 38.9307 52.3629 39.0438 51.2683 39.1469C50.1737 39.25 48.9426 40.0985 49.0201 38.1856C49.0507 37.4302 49.8335 36.734 50.8398 36.5692C52.2396 36.3298 52.9365 37.2522 53.1405 37.7978Z" fill="white"/>
    <path d="M32.6495 47.0071C33.856 46.9241 34.7669 45.8787 34.6839 44.6722C34.6009 43.4656 33.5555 42.5548 32.349 42.6378C31.1424 42.7208 30.2316 43.7662 30.3146 44.9727C30.3976 46.1793 31.443 47.0901 32.6495 47.0071Z" fill="#2B366E"/>
    <path d="M32.051 45.7096C32.2115 45.6985 32.3327 45.5595 32.3216 45.399C32.3106 45.2385 32.1715 45.1174 32.011 45.1284C31.8506 45.1394 31.7294 45.2785 31.7404 45.439C31.7515 45.5995 31.8905 45.7206 32.051 45.7096Z" fill="white"/>
    <path d="M33.1288 44.9071C33.5114 44.8808 33.8002 44.5493 33.7738 44.1667C33.7475 43.7842 33.4161 43.4954 33.0335 43.5217C32.6509 43.548 32.3621 43.8795 32.3884 44.262C32.4147 44.6446 32.7462 44.9334 33.1288 44.9071Z" fill="white"/>
    <path d="M51.6296 45.7012C52.8361 45.6182 53.7468 44.5729 53.6639 43.3664C53.5809 42.16 52.5356 41.2492 51.3291 41.3322C50.1226 41.4152 49.2118 42.4605 49.2948 43.667C49.3778 44.8734 50.4231 45.7842 51.6296 45.7012Z" fill="#2B366E"/>
    <path d="M52.1926 44.3242C52.3531 44.3132 52.4743 44.1742 52.4632 44.0137C52.4522 43.8532 52.3132 43.7321 52.1527 43.7431C51.9922 43.7541 51.871 43.8932 51.8821 44.0537C51.8931 44.2141 52.0322 44.3353 52.1926 44.3242Z" fill="white"/>
    <path d="M51.0155 43.6764C51.398 43.6501 51.6868 43.3186 51.6605 42.9361C51.6342 42.5535 51.3027 42.2647 50.9202 42.291C50.5376 42.3173 50.2488 42.6488 50.2751 43.0313C50.3015 43.4139 50.6329 43.7027 51.0155 43.6764Z" fill="white"/>
    <path d="M49.2661 48.1382C49.449 50.8061 46.4395 52.6015 42.5934 52.8652C38.7472 53.1288 35.5209 51.7609 35.338 49.093C35.1551 46.4251 38.0849 43.4675 41.931 43.2038C45.7771 42.9401 49.0831 45.4703 49.2661 48.1382Z" fill="white"/>
    <path d="M44.5788 45.983C44.6393 46.8653 43.5927 47.6558 42.2416 47.7484C40.8906 47.841 39.7463 47.2007 39.6858 46.3184C39.6253 45.4361 40.708 45.1782 42.0591 45.0856C43.4102 44.993 44.5183 45.1006 44.5788 45.983Z" fill="#2B366E"/>
    <path opacity="0.8" d="M42.9641 45.8024C42.9851 46.1095 42.6208 46.3846 42.1505 46.4169C41.6803 46.4491 41.282 46.2262 41.2609 45.9191C41.2398 45.612 41.6167 45.5222 42.087 45.49C42.5573 45.4577 42.943 45.4952 42.9641 45.8024Z" fill="white"/>
    <path d="M45.2395 47.6706C45.0562 47.6359 44.8759 47.753 44.8386 47.9375C44.7768 48.245 44.3909 48.5415 43.9216 48.6418C43.6676 48.6983 43.0477 48.7533 42.6158 48.2237L42.5213 46.8498C42.5083 46.6621 42.346 46.5206 42.1582 46.5335C41.9705 46.5464 41.829 46.7088 41.842 46.8965L41.9365 48.2705C41.5817 48.8545 40.9599 48.8814 40.7009 48.864C40.2218 48.8283 39.7987 48.5874 39.6954 48.2913C39.6331 48.1129 39.4384 48.0203 39.2614 48.0818C39.084 48.144 38.9904 48.3384 39.0522 48.5155C39.2476 49.0739 39.8897 49.4895 40.6509 49.5426C41.2735 49.5861 41.8935 49.3797 42.3208 48.895C42.942 49.4443 43.6408 49.4088 44.0641 49.3078C44.8064 49.1308 45.3896 48.6514 45.5064 48.0715C45.5434 47.887 45.424 47.7079 45.2395 47.6706Z" fill="#2B366E"/>
    <path d="M34 63.5388C34 64.8029 32.6569 63.9966 31 63.9966C29.3431 63.9966 28 64.8029 28 63.5388C28 62.2747 29.3431 61.25 31 61.25C32.6569 61.25 34 62.2747 34 63.5388Z" fill="#C5CDD4"/>
    <path d="M58.1511 57.3389C58.1511 57.3389 62.1075 53.5579 62.1322 53.5122C62.4632 52.9027 64.2968 51.5062 65.6075 52.7258C66.9688 53.9927 66.3045 55.5612 65.3288 57.1249C65.3288 57.1249 62.3305 61.6039 58.3193 63.5528" fill="#7979B8"/>
    <path d="M65.4171 57.0433C65.4171 57.0433 61.5078 54.6806 62.139 53.5193C62.476 52.8991 64.3426 51.4782 65.6762 52.7184C67.0614 54.0066 66.1483 56.3761 65.4171 57.0433Z" fill="#C5CDD4"/>
  </g>
</svg>
